HIERARCHY
ROOT root
{
	OFFSET	0	13.1	24.9
	CHANNELS 6  Xposition Yposition Zposition Xrotation Yrotation Zrotation
	JOINT spine_1
	{
		OFFSET	0	9.99999	0
		CHANNELS 3  Xrotation Yrotation Zrotation
		JOINT spine_2
		{
			OFFSET	0	112	-10
			CHANNELS 3  Xrotation Yrotation Zrotation
			JOINT spine_3
			{
				OFFSET	0	206.5	19.3
				CHANNELS 3  Xrotation Yrotation Zrotation
				JOINT spine_4
				{
					OFFSET	0	110.4	14.6
					CHANNELS 3  Xrotation Yrotation Zrotation
					JOINT neck_1
					{
						OFFSET	0	71.8	-50.3
						CHANNELS 3  Xrotation Yrotation Zrotation
						JOINT neck_2
						{
							OFFSET	0	86.2	-25.8
							CHANNELS 3  Xrotation Yrotation Zrotation
							JOINT head_ee
							{
								OFFSET	0	179.8	-8.7
								CHANNELS 3  Xrotation Yrotation Zrotation
								End Site
								{
									OFFSET	1	0	0
								}
							}
						}
					}
					JOINT left_clavicle
					{
						OFFSET	-43.2	22.4	-70.8
						CHANNELS 3  Xrotation Yrotation Zrotation
						JOINT left_shoulder
						{
							OFFSET	-93.9	-5.79999	48.7
							CHANNELS 3  Xrotation Yrotation Zrotation
							JOINT left_elbow
							{
								OFFSET	-291.4	-30.8	15.2
								CHANNELS 3  Xrotation Yrotation Zrotation
								JOINT left_lowarm_twist
								{
									OFFSET	-110.7	-3.89999	13.6
									CHANNELS 3  Xrotation Yrotation Zrotation
									JOINT left_hand
									{
										OFFSET	-110.7	-3.89999	13.6
										CHANNELS 3  Xrotation Yrotation Zrotation
										JOINT left_ee
										{
											OFFSET	-80.8	-5.10001	12.1
											CHANNELS 3  Xrotation Yrotation Zrotation
											End Site
											{
												OFFSET	1	0	0
											}
										}
									}
								}
							}
						}
					}
					JOINT right_clavicle
					{
						OFFSET	43.2	22.4	-70.8
						CHANNELS 3  Xrotation Yrotation Zrotation
						JOINT right_shoulder
						{
							OFFSET	93.9	-5.79999	48.7
							CHANNELS 3  Xrotation Yrotation Zrotation
							JOINT right_elbow
							{
								OFFSET	291.4	-30.8	15.2
								CHANNELS 3  Xrotation Yrotation Zrotation
								JOINT right_lowarm_twist
								{
									OFFSET	110.7	-3.89999	13.6
									CHANNELS 3  Xrotation Yrotation Zrotation
									JOINT right_hand
									{
										OFFSET	110.7	-3.89999	13.6
										CHANNELS 3  Xrotation Yrotation Zrotation
										JOINT right_ee
										{
											OFFSET	80.8	-5.10001	12.1
											CHANNELS 3  Xrotation Yrotation Zrotation
											End Site
											{
												OFFSET	1	0	0
											}
										}
									}
								}
							}
						}
					}
				}
			}
		}
	}
	JOINT left_hip
	{
		OFFSET	-82.8	-127.5	0.300001
		CHANNELS 3  Xrotation Yrotation Zrotation
		JOINT left_knee
		{
			OFFSET	-28.2	-396.7	2.2
			CHANNELS 3  Xrotation Yrotation Zrotation
			JOINT left_ankle
			{
				OFFSET	-11.7	-411.3	35.4
				CHANNELS 3  Xrotation Yrotation Zrotation
				JOINT left_toes
				{
					OFFSET	0	-60	-88.6
					CHANNELS 3  Xrotation Yrotation Zrotation
					JOINT left_foot_ee
					{
						OFFSET	-22.5	-16.5	-42.2
						CHANNELS 3  Xrotation Yrotation Zrotation
						End Site
						{
							OFFSET	1	0	0
						}
					}
				}
			}
		}
	}
	JOINT right_hip
	{
		OFFSET	82.8	-127.5	0.300001
		CHANNELS 3  Xrotation Yrotation Zrotation
		JOINT right_knee
		{
			OFFSET	28.2	-396.7	2.2
			CHANNELS 3  Xrotation Yrotation Zrotation
			JOINT right_ankle
			{
				OFFSET	11.7	-411.3	35.4
				CHANNELS 3  Xrotation Yrotation Zrotation
				JOINT right_toes
				{
					OFFSET	0	-60	-88.6
					CHANNELS 3  Xrotation Yrotation Zrotation
					JOINT right_foot_ee
					{
						OFFSET	22.5	-16.5	-42.2
						CHANNELS 3  Xrotation Yrotation Zrotation
						End Site
						{
							OFFSET	1	0	0
						}
					}
				}
			}
		}
	}
}
MOTION
Frames: 6
Frame Time: 0.02
391.555 721.904 -1204.45 -162.351233686 -24.1257751492 -176.434744072 3.24169 0.00239167 1.28044 3.2426 -0.0790838 1.27799 3.24047 -0.275731 1.2504 3.2383 -0.0748095 1.27825 -3.15306 1.02466 -0.66797 -3.1488 2.38281 -0.542964 -0.0 0.0 -0.0 5.27408 14.8632 10.2712 -32.2062 -41.3966 76.1978 0.224501 -6.34602 0.0124456 -50.9091 -4.17869 4.7296 -3.66586 28.6978 -8.59713 -0.0 0.0 -0.0 10.6759 13.7012 -21.2476 20.2368 1.86163 -67.6687 1.1134 28.8778 -0.286686 57.996 1.5988 6.92001 -3.66255 -28.8257 8.50111 0.0 0.0 0.0 32.9113 5.36561 0.556817 -12.79 0.311858 1.93398 -4.8118 30.1711 0.765116 -3.32111 0.0 0.0 -0.0 0.0 -0.0 35.0676 3.81329 5.3154 -28.8203 -0.0874416 -4.37559 11.2548 -28.1513 1.6985 15.8765 -0.0 -0.0 0.0 0.0 0.0 
523.324525583 708.909 -1134.41940357 -168.127545068 -15.4889046029 179.679504767 3.38833 -0.123519 1.16983 3.38907 -0.197703 1.1596 3.38473 -0.371824 1.11603 3.38304 -0.190914 1.16074 -6.95818 8.97292 7.73131 -6.80779 11.0796 9.51358 -0.0 0.0 -0.0 8.38115 20.5099 14.8304 -30.0947 -43.6391 51.0539 0.384081 -10.7727 0.0362141 -53.9247 -4.53834 4.87226 -3.2832 22.5201 -10.0819 -0.0 0.0 -0.0 7.70367 -12.415 -14.4912 4.13886 -3.77047 -68.1381 0.662884 18.1789 -0.106053 62.9942 2.04763 7.3771 -5.64479 -29.1531 19.3455 0.0 0.0 0.0 33.9235 -28.8229 15.7289 -26.6727 0.157062 4.05337 11.9301 28.8401 -1.80471 -5.17179 0.0 0.0 -0.0 0.0 -0.0 23.7716 10.3154 10.7894 -24.574 -0.213373 -3.73624 -8.17387 -29.3961 -1.29965 31.6264 -0.0 -0.0 0.0 0.0 0.0 
523.067402513 708.909 -1133.93772948 -168.139408426 -15.2837399132 179.634792448 3.38833 -0.123519 1.16983 3.38907 -0.197703 1.1596 3.38473 -0.371824 1.11603 3.38304 -0.190914 1.16074 -6.95818 8.97292 7.73131 -6.80779 11.0796 9.51358 -0.0 0.0 -0.0 8.38115 20.5099 14.8304 -30.0947 -43.6391 51.0539 0.384081 -10.7727 0.0362141 -53.9247 -4.53834 4.87226 -3.2832 22.5201 -10.0819 -0.0 0.0 -0.0 7.70367 -12.415 -14.4912 4.13886 -3.77047 -68.1381 0.662884 18.1789 -0.106053 62.9942 2.04763 7.3771 -5.64479 -29.1531 19.3455 0.0 0.0 0.0 33.9235 -28.8229 15.7289 -26.6727 0.157062 4.05337 11.9301 28.8401 -1.80471 -5.17179 0.0 0.0 -0.0 0.0 -0.0 23.7716 10.3154 10.7894 -24.574 -0.213373 -3.73624 -8.17387 -29.3961 -1.29965 31.6264 -0.0 -0.0 0.0 0.0 0.0 
521.538262644 708.909 -1131.15713717 -168.204872817 -14.0911543928 179.37661154 3.38833 -0.123519 1.16983 3.38907 -0.197703 1.1596 3.38473 -0.371824 1.11603 3.38304 -0.190914 1.16074 -6.95818 8.97292 7.73131 -6.80779 11.0796 9.51358 -0.0 0.0 -0.0 8.38115 20.5099 14.8304 -30.0947 -43.6391 51.0539 0.384081 -10.7727 0.0362141 -53.9247 -4.53834 4.87226 -3.2832 22.5201 -10.0819 -0.0 0.0 -0.0 7.70367 -12.415 -14.4912 4.13886 -3.77047 -68.1381 0.662884 18.1789 -0.106053 62.9942 2.04763 7.3771 -5.64479 -29.1531 19.3455 0.0 0.0 0.0 33.9235 -28.8229 15.7289 -26.6727 0.157062 4.05337 11.9301 28.8401 -1.80471 -5.17179 0.0 0.0 -0.0 0.0 -0.0 23.7716 10.3154 10.7894 -24.574 -0.213373 -3.73624 -8.17387 -29.3961 -1.29965 31.6264 -0.0 -0.0 0.0 0.0 0.0 
521.21344198 708.909 -1130.58403536 -168.217725698 -13.8435541712 179.323361746 3.38833 -0.123519 1.16983 3.38907 -0.197703 1.1596 3.38473 -0.371824 1.11603 3.38304 -0.190914 1.16074 -6.95818 8.97292 7.73131 -6.80779 11.0796 9.51358 -0.0 0.0 -0.0 8.38115 20.5099 14.8304 -30.0947 -43.6391 51.0539 0.384081 -10.7727 0.0362141 -53.9247 -4.53834 4.87226 -3.2832 22.5201 -10.0819 -0.0 0.0 -0.0 7.70367 -12.415 -14.4912 4.13886 -3.77047 -68.1381 0.662884 18.1789 -0.106053 62.9942 2.04763 7.3771 -5.64479 -29.1531 19.3455 0.0 0.0 0.0 33.9235 -28.8229 15.7289 -26.6727 0.157062 4.05337 11.9301 28.8401 -1.80471 -5.17179 0.0 0.0 -0.0 0.0 -0.0 23.7716 10.3154 10.7894 -24.574 -0.213373 -3.73624 -8.17387 -29.3961 -1.29965 31.6264 -0.0 -0.0 0.0 0.0 0.0 
523.245464403 708.909 -1134.2708443 -168.131220484 -15.4256707933 179.665714372 3.38833 -0.123519 1.16983 3.38907 -0.197703 1.1596 3.38473 -0.371824 1.11603 3.38304 -0.190914 1.16074 -6.95818 8.97292 7.73131 -6.80779 11.0796 9.51358 -0.0 0.0 -0.0 8.38115 20.5099 14.8304 -30.0947 -43.6391 51.0539 0.384081 -10.7727 0.0362141 -53.9247 -4.53834 4.87226 -3.2832 22.5201 -10.0819 -0.0 0.0 -0.0 7.70367 -12.415 -14.4912 4.13886 -3.77047 -68.1381 0.662884 18.1789 -0.106053 62.9942 2.04763 7.3771 -5.64479 -29.1531 19.3455 0.0 0.0 0.0 33.9235 -28.8229 15.7289 -26.6727 0.157062 4.05337 11.9301 28.8401 -1.80471 -5.17179 0.0 0.0 -0.0 0.0 -0.0 23.7716 10.3154 10.7894 -24.574 -0.213373 -3.73624 -8.17387 -29.3961 -1.29965 31.6264 -0.0 -0.0 0.0 0.0 0.0 
